<svg width="22" height="22" viewBox="0 0 22 22" fill="none" xmlns="http://www.w3.org/2000/svg">
<g clip-path="url(#clip0)">
<path d="M12.9442 9.74286C14.0182 10.8168 14.0182 12.5581 12.9442 13.6321C11.8702 14.706 10.129 14.706 9.05499 13.6321C7.98102 12.5581 7.98102 10.8168 9.05499 9.74286C10.129 8.66888 11.8702 8.66888 12.9442 9.74286Z" fill="#989898"/>
<path d="M19.25 4.12485H17.3499L15.9742 1.37476H6.02455L4.65015 4.1262L2.75275 4.12958C1.24009 4.13228 0.00869272 5.36498 0.00738656 6.87832L0 17.8746C0 19.3913 1.23337 20.6254 2.7501 20.6254H19.25C20.7667 20.6254 22.0001 19.392 22.0001 17.8753V6.8749C22 5.35823 20.7666 4.12485 19.25 4.12485ZM10.9997 17.1877C7.9669 17.1877 5.49947 14.7203 5.49947 11.6876C5.49947 8.65479 7.9669 6.18737 10.9997 6.18737C14.0324 6.18737 16.4999 8.65479 16.4999 11.6876C16.4999 14.7203 14.0324 17.1877 10.9997 17.1877Z" fill="#989898"/>
</g>
<defs>
<clipPath id="clip0">
<rect width="22" height="22" fill="white"/>
</clipPath>
</defs>
</svg>
