<svg width="45" height="45" viewBox="0 0 45 45" fill="none" xmlns="http://www.w3.org/2000/svg">
<path d="M0 22.5005C0 34.9279 10.0728 45.0004 22.4996 45C34.9272 45.0004 45 34.9279 45 22.5005C45.0008 10.0731 34.9272 0 22.4996 0C10.0728 0 0 10.0735 0 22.5005Z" fill="#FA6E51"/>
<path d="M44.9467 23.9755L34.4499 13.4787H34.4498L29.0248 8.05368C28.9691 7.99778 28.9023 7.95331 28.8284 7.92237C28.7548 7.89161 28.6752 7.875 28.5938 7.875H17.625C17.2886 7.875 17.0157 8.1479 17.0157 8.48435V11.5312H10.3125C9.97609 11.5312 9.70319 11.8041 9.70319 12.1406V36.5156C9.70319 36.7218 9.81243 36.8953 9.96923 37.0055C10.0099 37.0633 17.2425 44.2959 17.3004 44.3366C17.3194 44.3638 17.3466 44.3824 17.3692 44.4054C19.0178 44.7901 20.7338 45 22.4996 44.9999C34.4312 45.0004 44.1864 35.7144 44.9467 23.9755Z" fill="#E8573F"/>
<path d="M35.2496 14.3435C35.2186 14.2695 35.1741 14.2029 35.1183 14.1471L29.0249 8.05368C28.9691 7.99787 28.9025 7.95331 28.8284 7.92237C28.7548 7.89161 28.6752 7.875 28.5938 7.875H17.625C17.2885 7.875 17.0157 8.14781 17.0157 8.48435V11.5313H10.3125C9.976 11.5313 9.70319 11.8041 9.70319 12.1406V36.5156C9.70319 36.8521 9.976 37.1249 10.3125 37.1249H27.375C27.7115 37.1249 27.9843 36.8521 27.9843 36.5156V33.4688H34.6875C35.024 33.4688 35.2968 33.1959 35.2968 32.8594V14.5782C35.2969 14.4968 35.2803 14.4171 35.2496 14.3435ZM29.2032 9.95537L33.2166 13.9687H29.2032V9.95537ZM26.7657 35.9062H10.922V12.75H20.6719V18.2344C20.6719 18.5709 20.9447 18.8438 21.2813 18.8438H26.7657V35.9062ZM25.9041 17.625H21.8907V13.6116L25.9041 17.625ZM27.9844 32.25V18.2344C27.9844 18.153 27.9678 18.0735 27.9371 17.9997C27.9061 17.9257 27.8616 17.8591 27.8058 17.8033L21.7124 11.7099C21.6566 11.6541 21.59 11.6096 21.5159 11.5786C21.4423 11.5479 21.3627 11.5313 21.2813 11.5313H18.2344V9.09378H27.9844V14.5782C27.9844 14.9147 28.2572 15.1875 28.5938 15.1875H34.0782V32.25H27.9844Z" fill="#F4F6F9"/>
</svg>
