<svg width="45" height="45" viewBox="0 0 45 45" fill="none" xmlns="http://www.w3.org/2000/svg">
<path d="M22.5 45C34.9264 45 45 34.9264 45 22.5C45 10.0736 34.9264 0 22.5 0C10.0736 0 0 10.0736 0 22.5C0 34.9264 10.0736 45 22.5 45Z" fill="#4D76A1"/>
<path fill-rule="evenodd" clip-rule="evenodd" d="M21.6502 32.3683H23.4161C23.4161 32.3683 23.9496 32.3098 24.2219 32.0162C24.4726 31.7466 24.4646 31.2405 24.4646 31.2405C24.4646 31.2405 24.4301 28.8709 25.5298 28.5219C26.614 28.1782 28.0061 30.8121 29.4817 31.8249C30.5975 32.5913 31.4454 32.4233 31.4454 32.4233L35.3909 32.3683C35.3909 32.3683 37.4549 32.2412 36.4762 30.6184C36.396 30.4856 35.9063 29.418 33.5427 27.224C31.0688 24.9278 31.4001 25.2992 34.3802 21.3273C36.1951 18.9084 36.9206 17.4316 36.694 16.7991C36.4778 16.1966 35.143 16.3559 35.143 16.3559L30.7006 16.3835C30.7006 16.3835 30.3713 16.3386 30.1271 16.4846C29.8884 16.6278 29.7348 16.9615 29.7348 16.9615C29.7348 16.9615 29.0317 18.8333 28.094 20.4253C26.1158 23.7843 25.3249 23.9616 25.0016 23.753C24.2496 23.2669 24.4373 21.8002 24.4373 20.7582C24.4373 17.503 24.931 16.1457 23.4759 15.7943C22.993 15.6776 22.6376 15.6006 21.4027 15.5882C19.8176 15.5717 18.476 15.593 17.7163 15.9652C17.211 16.2127 16.8211 16.7642 17.0586 16.7958C17.3521 16.8352 18.0171 16.9751 18.3697 17.4552C18.8249 18.0745 18.8089 19.4655 18.8089 19.4655C18.8089 19.4655 19.0704 23.2974 18.198 23.7735C17.5992 24.1 16.7778 23.4334 15.0142 20.3859C14.1106 18.8249 13.4283 17.0995 13.4283 17.0995C13.4283 17.0995 13.2968 16.777 13.0622 16.6045C12.7774 16.3956 12.3795 16.329 12.3795 16.329L8.1581 16.3567C8.1581 16.3567 7.52439 16.3743 7.29176 16.6499C7.0848 16.8949 7.27532 17.4019 7.27532 17.4019C7.27532 17.4019 10.5802 25.134 14.3224 29.0305C17.7536 32.603 21.6502 32.3683 21.6502 32.3683Z" fill="white"/>
</svg>
